<svg id="Layer_1" data-name="Layer 1" xmlns="http://www.w3.org/2000/svg" viewBox="0 0 319.86 117.56"><defs><style>.cls-1{fill:#7ac142;}.cls-2{fill:#0078c1;}</style></defs><title>StarMarket_RGB</title><path class="cls-1" d="M159.46,109.38" transform="translate(0)"/><polygon class="cls-1" points="296.26 0.01 258.06 27.75 219.87 0 234.46 44.9 234.46 44.91 196.27 72.65 243.47 72.65 258.06 117.56 272.65 72.65 319.87 72.66 281.67 44.91 296.26 0.01"/><path class="cls-1" d="M137.3,85.7h4.93c-.23.66-.42,1.25-.64,1.9h.08a8.07,8.07,0,0,1,5.86-2.38h0c2.46,0,3.65,1,3.63,3h.07a7.32,7.32,0,0,1,6.08-3h0c3.44.07,4.3,1.83,3.13,5.54h0c-1.57,4.64-3.05,8.86-4.54,13.52h-5.16c1.47-4.48,2.93-8.54,4.38-13h0c.55-1.61.2-2.37-1.21-2.41h0c-1.73,0-2.95,1-3.75,3.16h0c-1.34,4.22-2.66,8-4.11,12.25H140.9c1.51-4.48,2.86-8.54,4.38-13h0c.48-1.6.31-2.37-1.22-2.41h0c-1.67,0-3,1-3.74,3.16h0c-1.41,4.22-2.78,8-4.12,12.25h-5.14C133.19,97.89,135.12,92.07,137.3,85.7Z" transform="translate(0)"/><path class="cls-1" d="M170.44,98.64a4.37,4.37,0,0,1-4.13,2.88h0c-1.39,0-1.5-1.14-1.06-2.6h0c.57-1.69,1.65-2.54,3.92-3h0a10.15,10.15,0,0,0,2.52-.93h0C171.23,96.23,170.89,97.37,170.44,98.64Zm-2.32-7.25a1,1,0,0,0,.17-.52h0a3.29,3.29,0,0,1,3.21-2.41h0c1.75,0,2.11.81,1.61,2.27h0c-.39,1.28-1,1.79-2.78,2.19h0l-3.16.72h0c-3.95,1-5.71,2.23-7,5.79h0c-.83,2.59-.57,5.22,3.06,5.33h0a7,7,0,0,0,5.92-2.42h.08a12.63,12.63,0,0,0,0,1.94h4.93a7.42,7.42,0,0,1,.57-3.59h0c1.19-3.35,2.12-6.41,3.3-9.79h0c1.12-3.45,1-5.58-5.36-5.68h0c-4,0-7.37,1.36-9,5.71h0a1.65,1.65,0,0,0-.15.46h4.63Z" transform="translate(0)"/><path class="cls-1" d="M183,85.7H188c-.27.85-.56,1.63-.83,2.49h.08c1.71-1.84,3.41-2.93,5.62-3h0c.28,0,.61,0,.91.07h0c-.57,1.57-.92,3-1.54,4.55h0c-.52,0-1.05-.08-1.58-.08h0a5,5,0,0,0-4.93,3.37h0c-1.34,3.81-2.4,7.31-3.76,11.15h-5.14C178.91,97.89,180.91,92.07,183,85.7Z" transform="translate(0)"/><path class="cls-1" d="M203,79.62c-1.52,4.45-2.87,8.55-4.38,13h.07c2.57-2.39,5-4.56,7.51-6.94h5.68c-2.82,2.52-5.38,4.79-8.24,7.32h0c1,3.86,1.81,7.38,2.85,11.26h-5.69c-.54-2.63-1.1-5-1.71-7.64h0c-.87.77-1.66,1.46-2.57,2.2h0c-.62,1.88-1.15,3.57-1.83,5.44h-5.15c2.87-8.49,5.46-16.2,8.31-24.66H203Z" transform="translate(0)"/><path class="cls-1" d="M215.46,92.89a4.35,4.35,0,0,1,.24-.75h0c.63-1.77,1.85-3.61,3.89-3.68h0c2.23.05,2,1.5,1.12,4.43h-5.25Zm9.23,2.82c.11-.37.25-.71.36-1.07h0c1.9-5.89,2-9.27-4.17-9.42h0c-7.18.19-9.41,4.48-11.22,9.59h0c-1.62,4.76-3.26,9.74,4.41,10h0c5-.1,7.84-2.32,9.54-6.74H219c-1.13,2.34-2.15,3.45-3.88,3.5h0c-2-.09-1.87-2.08-1.09-4.33h0c.17-.5.33-1,.5-1.48h10.18Z" transform="translate(0)"/><path class="cls-1" d="M233.93,80.38h5.14l-1.79,5.32h3c-.33,1.11-.64,2.12-1.09,3.24h-3c-1.18,3.45-2.26,6.6-3.39,10h0c-.5,1.51-.37,2,1.15,2.05h0c.4,0,.83,0,1.18-.06h0c-.39,1.13-.73,2.14-1.11,3.3h0c-1.17.1-2.22.2-3.44.2h0c-4.15,0-4.41-1-3.12-4.91h0c1.23-3.64,2.35-7,3.58-10.63h-2.62a31.72,31.72,0,0,0,1.1-3.24h2.61C232.75,83.87,233.3,82.2,233.93,80.38Z" transform="translate(0)"/><path class="cls-1" d="M137.57,100.29" transform="translate(0)"/><path class="cls-2" d="M201.21,34.91c-11.43.5-13,11.51-14.4,16.2h0c-2.45,8-4.74,15-7.08,23.07h-22c3.44-10.3,13-38.69,16.5-49.08L194,25l-1.92,6s7.06-8.1,16.77-8.37c4.56.31,8.26.91,12.1,6.33a8.07,8.07,0,0,1,1.1,7.16h0c-1.51,4.29-9.37,7-11.29,5.78s-1.85-5.4-6.66-6.71a8.33,8.33,0,0,0-2.87-.28" transform="translate(0)"/><path class="cls-2" d="M61.9,27.43A8,8,0,0,1,63,34.59h0c-1.53,4.29-9.37,7-11.29,5.79S51.15,30.8,45,28.44h0c-3.12-1.13-12.45.58-6.72,6.81h0c7.07,7.76,18,12.88,18,24.14h0c-1.23,8.08-6,10.94-12.92,13.51h0c-9.33,3-27,4.68-39-5.13h0c-11.44-10.65,2.8-18.6,5.76-19s5.7,13.56,14.6,16.47h0A5.86,5.86,0,0,0,30.08,64h0c1.32-1.62,1.07-3.25.1-5.28h0C24,50.24,11.33,43.36,15.69,31.93h0c3-6.2,10.19-9.56,17.34-10.89a44.17,44.17,0,0,1,13.74-.81C51.32,20.54,58.06,22,61.9,27.43Z" transform="translate(0)"/><path class="cls-2" d="M119.12,56.72c1.27-3.45,4.59-5.23,8.49-6.63C131.22,48.82,135.19,49,140,49c-2.43,6.63-5.51,14.24-15.45,14.24C120.23,63.26,117.81,60.29,119.12,56.72ZM120,27.86a14.69,14.69,0,0,0-2.6,1.84,6.49,6.49,0,0,0-2.22,4.52h0c-.06,3.13,3.28,6.07,4.81,5.75,1.25-.27,3.85-3.92,7.29-6.24a17.64,17.64,0,0,1,9.69-3.31,19.53,19.53,0,0,1,2.75.11c7.63.95,2.8,9.88,1.92,11.6h-7.27c-19.85,0-33.48,5.92-36.51,17-2.75,10.05,2.83,16.42,15.61,16.51,11.38.09,14.86-3.66,18.94-7.23h0c-1.31,3.57-1.6,4.17-1.69,5.75h22c1.33-5.92,11.78-35.71,11.78-35.71,4.33-11.18-9.3-15.7-21.65-15.66A63.47,63.47,0,0,0,130,24,34.24,34.24,0,0,0,120,27.86Z" transform="translate(0)"/><path class="cls-2" d="M96.4,24h13.67c-.8,3.35-1.58,6-2.61,9.44H94.34C92,40.69,90.22,46.37,87.88,53.6h0c-.36,1.29-1.41,4.32-1.65,5.74h0c-1,2.58-1.18,7.33,3.23,7.33a8.43,8.43,0,0,0,4.12-1l1.54,5.41c-5.59,3-11.14,4.32-19.79,4.55h0c-7.28-.19-12.95-1.75-12.6-10.14h0a36.25,36.25,0,0,1,1.7-6.36h0c3-9.18,5.54-16.5,8.48-25.66H66.1c1-3.2,1.84-6.31,2.79-9.44h7.16C77.75,19,79.2,13.8,79.2,13.8c5.93-1.31,17.13-3.27,21.62-3.89L96.4,24" transform="translate(0)"/><path class="cls-1" d="M277.88,116.08a5.11,5.11,0,1,1,5.21-5.1A5.06,5.06,0,0,1,277.88,116.08Zm0-9.19a4.09,4.09,0,1,0,4,4.09A4,4,0,0,0,277.88,106.89Zm1.2,7-1.39-2.44h-.75v2.44h-1.09v-5.72H278c1.42,0,2.23.45,2.23,1.69a1.44,1.44,0,0,1-1.5,1.53l1.53,2.5ZM278,109h-1v1.58H278c.62,0,1.12-.09,1.12-.84S278.5,109,278,109Z" transform="translate(0)"/></svg>